<svg width="401" height="218" viewBox="0 0 401 218" fill="none" xmlns="http://www.w3.org/2000/svg">
<path d="M7.245 107C5.285 107 3.78 106.16 2.73 104.48C1.68 102.8 1.575 101.015 2.415 99.125L31.92 28.67C32.97 26.22 34.685 24.995 37.065 24.995C39.585 24.995 41.3 26.22 42.21 28.67L71.82 99.335C72.59 101.295 72.45 103.08 71.4 104.69C70.42 106.23 68.915 107 66.885 107C65.835 107 64.82 106.72 63.84 106.16C62.93 105.53 62.265 104.69 61.845 103.64L35.805 38.96H38.745L12.285 103.64C11.795 104.76 11.06 105.6 10.08 106.16C9.17 106.72 8.225 107 7.245 107ZM12.81 88.94L17.01 79.91H58.17L62.37 88.94H12.81ZM131.788 107.105C130.248 107.105 128.953 106.615 127.903 105.635C126.923 104.585 126.433 103.29 126.433 101.75V75.92C126.433 71.93 125.698 68.675 124.228 66.155C122.758 63.635 120.763 61.78 118.243 60.59C115.793 59.33 112.958 58.7 109.738 58.7C106.798 58.7 104.138 59.295 101.758 60.485C99.3781 61.675 97.4881 63.285 96.0881 65.315C94.6881 67.275 93.9881 69.55 93.9881 72.14H87.3731C87.3731 67.73 88.4231 63.81 90.5231 60.38C92.6931 56.88 95.6331 54.115 99.3431 52.085C103.053 50.055 107.218 49.04 111.838 49.04C116.668 49.04 120.973 50.09 124.753 52.19C128.603 54.22 131.613 57.23 133.783 61.22C136.023 65.21 137.143 70.11 137.143 75.92V101.75C137.143 103.29 136.618 104.585 135.568 105.635C134.588 106.615 133.328 107.105 131.788 107.105ZM88.6331 107.105C87.0931 107.105 85.7981 106.615 84.7481 105.635C83.7681 104.585 83.2781 103.29 83.2781 101.75V54.92C83.2781 53.31 83.7681 52.015 84.7481 51.035C85.7981 50.055 87.0931 49.565 88.6331 49.565C90.2431 49.565 91.5381 50.055 92.5181 51.035C93.4981 52.015 93.9881 53.31 93.9881 54.92V101.75C93.9881 103.29 93.4981 104.585 92.5181 105.635C91.5381 106.615 90.2431 107.105 88.6331 107.105ZM161.255 107C159.715 107 158.42 106.51 157.37 105.53C156.39 104.48 155.9 103.185 155.9 101.645V54.92C155.9 53.31 156.39 52.015 157.37 51.035C158.42 50.055 159.715 49.565 161.255 49.565C162.865 49.565 164.16 50.055 165.14 51.035C166.12 52.015 166.61 53.31 166.61 54.92V101.645C166.61 103.185 166.12 104.48 165.14 105.53C164.16 106.51 162.865 107 161.255 107ZM161.255 40.22C159.365 40.22 157.72 39.555 156.32 38.225C154.99 36.825 154.325 35.18 154.325 33.29C154.325 31.4 154.99 29.79 156.32 28.46C157.72 27.06 159.365 26.36 161.255 26.36C163.145 26.36 164.755 27.06 166.085 28.46C167.485 29.79 168.185 31.4 168.185 33.29C168.185 35.18 167.485 36.825 166.085 38.225C164.755 39.555 163.145 40.22 161.255 40.22ZM261.925 107.105C260.385 107.105 259.09 106.615 258.04 105.635C257.06 104.585 256.57 103.29 256.57 101.75V71.72C256.57 67.31 255.485 64.055 253.315 61.955C251.145 59.785 248.31 58.7 244.81 58.7C241.17 58.7 238.16 59.96 235.78 62.48C233.47 65 232.315 68.22 232.315 72.14H223.6C223.6 67.59 224.58 63.6 226.54 60.17C228.5 56.67 231.23 53.94 234.73 51.98C238.3 50.02 242.36 49.04 246.91 49.04C250.9 49.04 254.435 49.915 257.515 51.665C260.595 53.415 262.975 56.005 264.655 59.435C266.405 62.795 267.28 66.89 267.28 71.72V101.75C267.28 103.29 266.79 104.585 265.81 105.635C264.83 106.615 263.535 107.105 261.925 107.105ZM191.89 107.105C190.35 107.105 189.055 106.615 188.005 105.635C187.025 104.585 186.535 103.29 186.535 101.75V55.025C186.535 53.415 187.025 52.12 188.005 51.14C189.055 50.16 190.35 49.67 191.89 49.67C193.5 49.67 194.795 50.16 195.775 51.14C196.755 52.12 197.245 53.415 197.245 55.025V101.75C197.245 103.29 196.755 104.585 195.775 105.635C194.795 106.615 193.5 107.105 191.89 107.105ZM226.96 107.105C225.42 107.105 224.125 106.615 223.075 105.635C222.095 104.585 221.605 103.29 221.605 101.75V71.72C221.605 67.31 220.52 64.055 218.35 61.955C216.18 59.785 213.345 58.7 209.845 58.7C206.205 58.7 203.195 59.96 200.815 62.48C198.435 65 197.245 68.22 197.245 72.14H190.63C190.63 67.59 191.54 63.6 193.36 60.17C195.18 56.67 197.7 53.94 200.92 51.98C204.14 50.02 207.815 49.04 211.945 49.04C215.935 49.04 219.47 49.915 222.55 51.665C225.63 53.415 228.01 56.005 229.69 59.435C231.44 62.795 232.315 66.89 232.315 71.72V101.75C232.315 103.29 231.825 104.585 230.845 105.635C229.865 106.615 228.57 107.105 226.96 107.105ZM312.06 107.42C306.25 107.42 301.07 106.195 296.52 103.745C292.04 101.225 288.505 97.795 285.915 93.455C283.395 89.045 282.135 84.005 282.135 78.335C282.135 72.595 283.325 67.555 285.705 63.215C288.155 58.805 291.515 55.375 295.785 52.925C300.055 50.405 304.955 49.145 310.485 49.145C315.945 49.145 320.635 50.37 324.555 52.82C328.475 55.2 331.45 58.525 333.48 62.795C335.58 66.995 336.63 71.86 336.63 77.39C336.63 78.72 336.175 79.84 335.265 80.75C334.355 81.59 333.2 82.01 331.8 82.01H289.485V73.61H331.485L327.18 76.55C327.11 73.05 326.41 69.935 325.08 67.205C323.75 64.405 321.86 62.2 319.41 60.59C316.96 58.98 313.985 58.175 310.485 58.175C306.495 58.175 303.065 59.05 300.195 60.8C297.395 62.55 295.26 64.965 293.79 68.045C292.32 71.055 291.585 74.485 291.585 78.335C291.585 82.185 292.46 85.615 294.21 88.625C295.96 91.635 298.375 94.015 301.455 95.765C304.535 97.515 308.07 98.39 312.06 98.39C314.23 98.39 316.435 98.005 318.675 97.235C320.985 96.395 322.84 95.45 324.24 94.4C325.29 93.63 326.41 93.245 327.6 93.245C328.86 93.175 329.945 93.525 330.855 94.295C332.045 95.345 332.675 96.5 332.745 97.76C332.815 99.02 332.255 100.105 331.065 101.015C328.685 102.905 325.71 104.445 322.14 105.635C318.64 106.825 315.28 107.42 312.06 107.42Z" fill="#212121"/>
<path d="M92.704 175C91.5747 175 90.625 174.615 89.855 173.845C89.085 173.075 88.7 172.125 88.7 170.996V118.867C88.7 117.686 89.085 116.737 89.855 116.018C90.625 115.248 91.5747 114.863 92.704 114.863H111.107C114.598 114.863 117.652 115.556 120.27 116.942C122.939 118.277 125.018 120.15 126.507 122.563C128.047 124.976 128.817 127.748 128.817 130.879C128.817 133.394 128.124 135.679 126.738 137.732C125.403 139.734 123.555 141.325 121.194 142.506C124.582 143.327 127.303 144.944 129.356 147.357C131.409 149.77 132.436 152.927 132.436 156.828C132.436 160.37 131.589 163.501 129.895 166.222C128.252 168.943 125.942 171.099 122.965 172.69C119.988 174.23 116.574 175 112.724 175H92.704ZM96.708 167.608H112.724C115.085 167.608 117.164 167.197 118.961 166.376C120.758 165.555 122.169 164.348 123.196 162.757C124.223 161.166 124.736 159.189 124.736 156.828C124.736 154.621 124.223 152.798 123.196 151.361C122.169 149.924 120.758 148.846 118.961 148.127C117.164 147.357 115.085 146.972 112.724 146.972H96.708V167.608ZM96.708 139.58H111.107C114.033 139.58 116.42 138.861 118.268 137.424C120.167 135.987 121.117 133.805 121.117 130.879C121.117 127.953 120.167 125.797 118.268 124.411C116.42 122.974 114.033 122.255 111.107 122.255H96.708V139.58ZM170.638 175.77C166.12 175.77 161.988 175.026 158.241 173.537C154.493 171.997 151.259 169.867 148.539 167.146C145.869 164.374 143.79 161.114 142.302 157.367C140.813 153.568 140.069 149.41 140.069 144.893C140.069 140.376 140.813 136.243 142.302 132.496C143.79 128.749 145.869 125.515 148.539 122.794C151.259 120.022 154.493 117.892 158.241 116.403C161.988 114.863 166.12 114.093 170.638 114.093C175.155 114.093 179.262 114.863 182.958 116.403C186.705 117.892 189.939 120.022 192.66 122.794C195.38 125.515 197.485 128.749 198.974 132.496C200.462 136.243 201.207 140.376 201.207 144.893C201.207 149.41 200.462 153.568 198.974 157.367C197.485 161.114 195.38 164.374 192.66 167.146C189.939 169.867 186.705 171.997 182.958 173.537C179.262 175.026 175.155 175.77 170.638 175.77ZM170.638 168.532C173.974 168.532 177.029 167.942 179.801 166.761C182.624 165.529 185.062 163.861 187.116 161.756C189.169 159.6 190.735 157.085 191.813 154.21C192.942 151.335 193.507 148.23 193.507 144.893C193.507 141.556 192.942 138.451 191.813 135.576C190.735 132.701 189.169 130.212 187.116 128.107C185.062 125.951 182.624 124.283 179.801 123.102C177.029 121.921 173.974 121.331 170.638 121.331C167.301 121.331 164.221 121.921 161.398 123.102C158.626 124.283 156.213 125.951 154.16 128.107C152.158 130.212 150.592 132.701 149.463 135.576C148.333 138.451 147.769 141.556 147.769 144.893C147.769 148.23 148.333 151.335 149.463 154.21C150.592 157.085 152.158 159.6 154.16 161.756C156.213 163.861 158.626 165.529 161.398 166.761C164.221 167.942 167.301 168.532 170.638 168.532ZM210.436 175C209.255 175 208.357 174.641 207.741 173.922C207.125 173.152 206.817 172.279 206.817 171.304C206.817 170.277 207.125 169.353 207.741 168.532L227.145 142.66L230.61 139.58L248.32 116.018C249.038 115.248 249.988 114.863 251.169 114.863C252.247 114.863 253.094 115.197 253.71 115.864C254.326 116.531 254.659 117.353 254.711 118.328C254.762 119.303 254.48 120.253 253.864 121.177L235.153 146.125L231.842 149.051L213.208 173.845C212.438 174.615 211.514 175 210.436 175ZM250.707 175C250.039 175 249.449 174.897 248.936 174.692C248.474 174.435 248.037 174.05 247.627 173.537L229.686 148.666L226.837 146.279L208.742 121.177C208.126 120.356 207.869 119.457 207.972 118.482C208.074 117.507 208.434 116.66 209.05 115.941C209.717 115.222 210.59 114.863 211.668 114.863C213.002 114.863 213.952 115.248 214.517 116.018L231.611 139.734L234.537 142.121L253.556 168.532C254.172 169.353 254.454 170.277 254.403 171.304C254.351 172.331 253.992 173.203 253.325 173.922C252.709 174.641 251.836 175 250.707 175Z" fill="#212121"/>
<rect x="259" width="142" height="39" rx="5" fill="#212121"/>
<path d="M304.04 28C303.747 28 303.5 27.9 303.3 27.7C303.1 27.5 303 27.2533 303 26.96V13.42C303 13.1133 303.1 12.8667 303.3 12.68C303.5 12.48 303.747 12.38 304.04 12.38H308.82C309.727 12.38 310.52 12.56 311.2 12.92C311.893 13.2667 312.433 13.7533 312.82 14.38C313.22 15.0067 313.42 15.7267 313.42 16.54C313.42 17.1933 313.24 17.7867 312.88 18.32C312.533 18.84 312.053 19.2533 311.44 19.56C312.32 19.7733 313.027 20.1933 313.56 20.82C314.093 21.4467 314.36 22.2667 314.36 23.28C314.36 24.2 314.14 25.0133 313.7 25.72C313.273 26.4267 312.673 26.9867 311.9 27.4C311.127 27.8 310.24 28 309.24 28H304.04ZM305.08 26.08H309.24C309.853 26.08 310.393 25.9733 310.86 25.76C311.327 25.5467 311.693 25.2333 311.96 24.82C312.227 24.4067 312.36 23.8933 312.36 23.28C312.36 22.7067 312.227 22.2333 311.96 21.86C311.693 21.4867 311.327 21.2067 310.86 21.02C310.393 20.82 309.853 20.72 309.24 20.72H305.08V26.08ZM305.08 18.8H308.82C309.58 18.8 310.2 18.6133 310.68 18.24C311.173 17.8667 311.42 17.3 311.42 16.54C311.42 15.78 311.173 15.22 310.68 14.86C310.2 14.4867 309.58 14.3 308.82 14.3H305.08V18.8ZM318.493 28C318.2 28 317.953 27.9 317.753 27.7C317.553 27.5 317.453 27.2533 317.453 26.96V13.42C317.453 13.1133 317.553 12.8667 317.753 12.68C317.953 12.48 318.2 12.38 318.493 12.38H327.533C327.84 12.38 328.086 12.4733 328.273 12.66C328.46 12.8333 328.553 13.0667 328.553 13.36C328.553 13.64 328.46 13.8667 328.273 14.04C328.086 14.2133 327.84 14.3 327.533 14.3H319.533V19.16H325.273C325.58 19.16 325.826 19.2533 326.013 19.44C326.2 19.6133 326.293 19.84 326.293 20.12C326.293 20.4 326.2 20.6333 326.013 20.82C325.826 20.9933 325.58 21.08 325.273 21.08H319.533V26.08H327.533C327.84 26.08 328.086 26.1667 328.273 26.34C328.46 26.5133 328.553 26.74 328.553 27.02C328.553 27.3133 328.46 27.5533 328.273 27.74C328.086 27.9133 327.84 28 327.533 28H318.493ZM336.077 28C335.784 28 335.537 27.9 335.337 27.7C335.137 27.5 335.037 27.2533 335.037 26.96V12.38H337.117V26.96C337.117 27.2533 337.017 27.5 336.817 27.7C336.617 27.9 336.37 28 336.077 28ZM330.717 14.3C330.437 14.3 330.204 14.2133 330.017 14.04C329.844 13.8533 329.757 13.62 329.757 13.34C329.757 13.06 329.844 12.8333 330.017 12.66C330.204 12.4733 330.437 12.38 330.717 12.38H341.417C341.697 12.38 341.924 12.4733 342.097 12.66C342.284 12.8333 342.377 13.06 342.377 13.34C342.377 13.62 342.284 13.8533 342.097 14.04C341.924 14.2133 341.697 14.3 341.417 14.3H330.717ZM342.458 28C342.085 28 341.798 27.84 341.598 27.52C341.398 27.2 341.378 26.86 341.538 26.5L347.158 13.08C347.358 12.6133 347.685 12.38 348.138 12.38C348.618 12.38 348.945 12.6133 349.118 13.08L354.758 26.54C354.905 26.9133 354.878 27.2533 354.678 27.56C354.491 27.8533 354.205 28 353.818 28C353.618 28 353.425 27.9467 353.238 27.84C353.065 27.72 352.938 27.56 352.858 27.36L347.898 15.04H348.458L343.418 27.36C343.325 27.5733 343.185 27.7333 342.998 27.84C342.825 27.9467 342.645 28 342.458 28ZM343.518 24.56L344.318 22.84H352.158L352.958 24.56H343.518Z" fill="white"/>
<path d="M81.58 212.22C80.3933 212.22 79.46 211.987 78.78 211.52C78.1133 211.053 77.6467 210.42 77.38 209.62C77.1133 208.807 76.98 207.873 76.98 206.82V201.04C76.98 199.933 77.1133 198.973 77.38 198.16C77.6467 197.347 78.1133 196.72 78.78 196.28C79.46 195.84 80.3933 195.62 81.58 195.62C82.7 195.62 83.5733 195.813 84.2 196.2C84.84 196.573 85.2933 197.113 85.56 197.82C85.8267 198.527 85.96 199.347 85.96 200.28V201.64H83.12V200.24C83.12 199.787 83.0933 199.373 83.04 199C83 198.627 82.8733 198.333 82.66 198.12C82.46 197.893 82.1067 197.78 81.6 197.78C81.0933 197.78 80.72 197.9 80.48 198.14C80.2533 198.367 80.1067 198.68 80.04 199.08C79.9733 199.467 79.94 199.907 79.94 200.4V207.44C79.94 208.027 79.9867 208.513 80.08 208.9C80.1733 209.273 80.34 209.56 80.58 209.76C80.8333 209.947 81.1733 210.04 81.6 210.04C82.0933 210.04 82.44 209.927 82.64 209.7C82.8533 209.46 82.9867 209.147 83.04 208.76C83.0933 208.373 83.12 207.94 83.12 207.46V206H85.96V207.3C85.96 208.26 85.8333 209.113 85.58 209.86C85.3267 210.593 84.88 211.173 84.24 211.6C83.6133 212.013 82.7267 212.22 81.58 212.22ZM87.8408 212L87.8808 200.44H89.9008L92.3408 206.74L94.8208 200.44H96.8208L96.8808 212H94.7208V205.52L92.7808 210.52H91.9608L90.0008 205.54V212H87.8408ZM102.454 212.18C101.614 212.18 100.921 212.027 100.374 211.72C99.8274 211.4 99.4141 210.94 99.1341 210.34C98.8674 209.74 98.7341 209.013 98.7341 208.16V204.28C98.7341 203.427 98.8674 202.7 99.1341 202.1C99.4141 201.5 99.8274 201.047 100.374 200.74C100.921 200.42 101.614 200.26 102.454 200.26C103.294 200.26 103.987 200.42 104.534 200.74C105.094 201.047 105.507 201.5 105.774 202.1C106.054 202.7 106.194 203.427 106.194 204.28V208.16C106.194 209.013 106.054 209.74 105.774 210.34C105.507 210.94 105.094 211.4 104.534 211.72C103.987 212.027 103.294 212.18 102.454 212.18ZM102.474 210.3C102.781 210.3 103.007 210.213 103.154 210.04C103.301 209.867 103.394 209.633 103.434 209.34C103.474 209.033 103.494 208.7 103.494 208.34V204.1C103.494 203.74 103.474 203.413 103.434 203.12C103.394 202.827 103.301 202.593 103.154 202.42C103.007 202.233 102.781 202.14 102.474 202.14C102.167 202.14 101.941 202.233 101.794 202.42C101.647 202.593 101.547 202.827 101.494 203.12C101.454 203.413 101.434 203.74 101.434 204.1V208.34C101.434 208.7 101.454 209.033 101.494 209.34C101.547 209.633 101.647 209.867 101.794 210.04C101.941 210.213 102.167 210.3 102.474 210.3ZM109.259 212V202.34H107.139V200.44H114.099V202.34H111.959V212H109.259ZM115.419 215.8V200.44H118.139V201.32C118.472 201 118.839 200.747 119.239 200.56C119.639 200.36 120.059 200.26 120.499 200.26C121.019 200.26 121.446 200.38 121.779 200.62C122.112 200.86 122.372 201.18 122.559 201.58C122.746 201.967 122.872 202.387 122.939 202.84C123.019 203.28 123.059 203.707 123.059 204.12V208.04C123.059 208.8 122.966 209.493 122.779 210.12C122.606 210.747 122.319 211.247 121.919 211.62C121.532 211.993 121.012 212.18 120.359 212.18C119.946 212.18 119.552 212.08 119.179 211.88C118.819 211.68 118.472 211.427 118.139 211.12V215.8H115.419ZM119.339 210.28C119.632 210.28 119.846 210.187 119.979 210C120.126 209.8 120.219 209.54 120.259 209.22C120.312 208.887 120.339 208.527 120.339 208.14V204C120.339 203.64 120.312 203.32 120.259 203.04C120.206 202.747 120.106 202.513 119.959 202.34C119.812 202.167 119.599 202.08 119.319 202.08C119.106 202.08 118.892 202.133 118.679 202.24C118.479 202.333 118.299 202.447 118.139 202.58V209.88C118.312 210 118.499 210.1 118.699 210.18C118.899 210.247 119.112 210.28 119.339 210.28ZM124.931 212V200.44H127.151V207.4L130.391 200.44H132.511V212H130.291V205.04L127.111 212H124.931ZM139.462 212V200.44H141.682V207.4L144.922 200.44H147.042V212H144.822V205.04L141.642 212H139.462ZM153.993 212V200.44H156.713V205.1H159.053V200.44H161.773V212H159.053V207.02H156.713V212H153.993ZM165.776 212.18C165.256 212.18 164.803 212.047 164.416 211.78C164.043 211.5 163.756 211.153 163.556 210.74C163.356 210.313 163.256 209.873 163.256 209.42C163.256 208.7 163.39 208.093 163.656 207.6C163.923 207.107 164.276 206.693 164.716 206.36C165.17 206.027 165.67 205.74 166.216 205.5C166.776 205.247 167.35 205.02 167.936 204.82V203.82C167.936 203.487 167.91 203.207 167.856 202.98C167.816 202.753 167.73 202.58 167.596 202.46C167.463 202.34 167.27 202.28 167.016 202.28C166.776 202.28 166.583 202.333 166.436 202.44C166.303 202.547 166.203 202.7 166.136 202.9C166.083 203.087 166.056 203.307 166.056 203.56L166.016 204.26L163.416 204.16C163.47 202.827 163.803 201.847 164.416 201.22C165.03 200.58 165.97 200.26 167.236 200.26C168.396 200.26 169.243 200.58 169.776 201.22C170.31 201.86 170.576 202.727 170.576 203.82V209.16C170.576 209.587 170.583 209.973 170.596 210.32C170.623 210.667 170.65 210.98 170.676 211.26C170.716 211.54 170.75 211.787 170.776 212H168.316C168.276 211.733 168.23 211.433 168.176 211.1C168.123 210.753 168.083 210.5 168.056 210.34C167.923 210.807 167.67 211.233 167.296 211.62C166.923 211.993 166.416 212.18 165.776 212.18ZM166.776 210.16C166.95 210.16 167.11 210.12 167.256 210.04C167.403 209.947 167.536 209.84 167.656 209.72C167.776 209.6 167.87 209.493 167.936 209.4V206.18C167.63 206.353 167.343 206.527 167.076 206.7C166.823 206.873 166.603 207.067 166.416 207.28C166.23 207.48 166.083 207.7 165.976 207.94C165.87 208.18 165.816 208.46 165.816 208.78C165.816 209.207 165.896 209.547 166.056 209.8C166.23 210.04 166.47 210.16 166.776 210.16ZM176.028 212.18C175.134 212.18 174.414 212.013 173.868 211.68C173.334 211.333 172.941 210.847 172.688 210.22C172.448 209.58 172.328 208.827 172.328 207.96V204.48C172.328 203.587 172.448 202.827 172.688 202.2C172.941 201.573 173.341 201.093 173.888 200.76C174.434 200.427 175.148 200.26 176.028 200.26C176.854 200.26 177.528 200.393 178.048 200.66C178.581 200.913 178.968 201.307 179.208 201.84C179.448 202.36 179.568 203.02 179.568 203.82V204.78H177.008V203.76C177.008 203.36 176.974 203.047 176.908 202.82C176.854 202.58 176.754 202.413 176.608 202.32C176.461 202.213 176.268 202.16 176.028 202.16C175.788 202.16 175.594 202.227 175.448 202.36C175.301 202.48 175.194 202.68 175.128 202.96C175.074 203.24 175.048 203.627 175.048 204.12V208.36C175.048 209.107 175.128 209.613 175.288 209.88C175.448 210.133 175.701 210.26 176.048 210.26C176.314 210.26 176.514 210.2 176.648 210.08C176.794 209.96 176.888 209.787 176.928 209.56C176.981 209.32 177.008 209.033 177.008 208.7V207.46H179.568V208.56C179.568 209.333 179.441 209.993 179.188 210.54C178.948 211.087 178.561 211.5 178.028 211.78C177.508 212.047 176.841 212.18 176.028 212.18ZM180.616 212.12V210.14C181.03 210.14 181.363 210.067 181.616 209.92C181.87 209.773 182.07 209.527 182.216 209.18C182.363 208.82 182.476 208.34 182.556 207.74C182.636 207.127 182.71 206.36 182.776 205.44L183.096 200.44H189.816V212H187.096V202.36H185.436L185.196 205.76C185.116 207.027 184.996 208.073 184.836 208.9C184.69 209.727 184.463 210.373 184.156 210.84C183.863 211.307 183.463 211.64 182.956 211.84C182.45 212.027 181.803 212.12 181.016 212.12H180.616ZM193.823 212.18C193.303 212.18 192.85 212.047 192.463 211.78C192.09 211.5 191.803 211.153 191.603 210.74C191.403 210.313 191.303 209.873 191.303 209.42C191.303 208.7 191.437 208.093 191.703 207.6C191.97 207.107 192.323 206.693 192.763 206.36C193.217 206.027 193.717 205.74 194.263 205.5C194.823 205.247 195.397 205.02 195.983 204.82V203.82C195.983 203.487 195.957 203.207 195.903 202.98C195.863 202.753 195.777 202.58 195.643 202.46C195.51 202.34 195.317 202.28 195.063 202.28C194.823 202.28 194.63 202.333 194.483 202.44C194.35 202.547 194.25 202.7 194.183 202.9C194.13 203.087 194.103 203.307 194.103 203.56L194.063 204.26L191.463 204.16C191.517 202.827 191.85 201.847 192.463 201.22C193.077 200.58 194.017 200.26 195.283 200.26C196.443 200.26 197.29 200.58 197.823 201.22C198.357 201.86 198.623 202.727 198.623 203.82V209.16C198.623 209.587 198.63 209.973 198.643 210.32C198.67 210.667 198.697 210.98 198.723 211.26C198.763 211.54 198.797 211.787 198.823 212H196.363C196.323 211.733 196.277 211.433 196.223 211.1C196.17 210.753 196.13 210.5 196.103 210.34C195.97 210.807 195.717 211.233 195.343 211.62C194.97 211.993 194.463 212.18 193.823 212.18ZM194.823 210.16C194.997 210.16 195.157 210.12 195.303 210.04C195.45 209.947 195.583 209.84 195.703 209.72C195.823 209.6 195.917 209.493 195.983 209.4V206.18C195.677 206.353 195.39 206.527 195.123 206.7C194.87 206.873 194.65 207.067 194.463 207.28C194.277 207.48 194.13 207.7 194.023 207.94C193.917 208.18 193.863 208.46 193.863 208.78C193.863 209.207 193.943 209.547 194.103 209.8C194.277 210.04 194.517 210.16 194.823 210.16ZM199.675 212L202.255 206.14L199.835 200.44H202.275L204.415 205.96H204.615V200.44H206.855V205.96H207.055L209.255 200.44H211.715L209.215 206.14L211.855 212H209.515L207.055 206.38H206.855V212H204.615V206.38H204.395L202.015 212H199.675ZM212.697 215.08V210.3C213.11 210.047 213.477 209.733 213.797 209.36C214.13 208.973 214.417 208.5 214.657 207.94C214.897 207.38 215.083 206.707 215.217 205.92C215.363 205.133 215.457 204.2 215.497 203.12L215.677 200.44H221.497V210.24H222.957V215.08H221.057L220.857 212H214.777L214.597 215.08H212.697ZM215.517 210.24H218.957V202.18H217.717L217.577 203.74C217.55 204.793 217.477 205.687 217.357 206.42C217.25 207.153 217.103 207.767 216.917 208.26C216.73 208.753 216.517 209.153 216.277 209.46C216.037 209.767 215.783 210.027 215.517 210.24ZM226.362 212.18C225.842 212.18 225.389 212.047 225.002 211.78C224.629 211.5 224.342 211.153 224.142 210.74C223.942 210.313 223.842 209.873 223.842 209.42C223.842 208.7 223.976 208.093 224.242 207.6C224.509 207.107 224.862 206.693 225.302 206.36C225.756 206.027 226.256 205.74 226.802 205.5C227.362 205.247 227.936 205.02 228.522 204.82V203.82C228.522 203.487 228.496 203.207 228.442 202.98C228.402 202.753 228.316 202.58 228.182 202.46C228.049 202.34 227.856 202.28 227.602 202.28C227.362 202.28 227.169 202.333 227.022 202.44C226.889 202.547 226.789 202.7 226.722 202.9C226.669 203.087 226.642 203.307 226.642 203.56L226.602 204.26L224.002 204.16C224.056 202.827 224.389 201.847 225.002 201.22C225.616 200.58 226.556 200.26 227.822 200.26C228.982 200.26 229.829 200.58 230.362 201.22C230.896 201.86 231.162 202.727 231.162 203.82V209.16C231.162 209.587 231.169 209.973 231.182 210.32C231.209 210.667 231.236 210.98 231.262 211.26C231.302 211.54 231.336 211.787 231.362 212H228.902C228.862 211.733 228.816 211.433 228.762 211.1C228.709 210.753 228.669 210.5 228.642 210.34C228.509 210.807 228.256 211.233 227.882 211.62C227.509 211.993 227.002 212.18 226.362 212.18ZM227.362 210.16C227.536 210.16 227.696 210.12 227.842 210.04C227.989 209.947 228.122 209.84 228.242 209.72C228.362 209.6 228.456 209.493 228.522 209.4V206.18C228.216 206.353 227.929 206.527 227.662 206.7C227.409 206.873 227.189 207.067 227.002 207.28C226.816 207.48 226.669 207.7 226.562 207.94C226.456 208.18 226.402 208.46 226.402 208.78C226.402 209.207 226.482 209.547 226.642 209.8C226.816 210.04 227.056 210.16 227.362 210.16ZM233.134 212V200.44H235.354V207.4L238.594 200.44H240.714V212H238.494V205.04L235.314 212H233.134ZM236.974 199.16C236.014 199.16 235.287 198.9 234.794 198.38C234.314 197.847 234.074 197.133 234.074 196.24H235.634C235.634 196.72 235.734 197.087 235.934 197.34C236.134 197.593 236.48 197.72 236.974 197.72C237.454 197.72 237.794 197.593 237.994 197.34C238.194 197.073 238.294 196.707 238.294 196.24H239.854C239.854 197.133 239.607 197.847 239.114 198.38C238.634 198.9 237.92 199.16 236.974 199.16ZM246.282 212.18C245.388 212.18 244.668 212.013 244.122 211.68C243.588 211.333 243.195 210.847 242.942 210.22C242.702 209.58 242.582 208.827 242.582 207.96V204.48C242.582 203.587 242.702 202.827 242.942 202.2C243.195 201.573 243.595 201.093 244.142 200.76C244.688 200.427 245.402 200.26 246.282 200.26C247.108 200.26 247.782 200.393 248.302 200.66C248.835 200.913 249.222 201.307 249.462 201.84C249.702 202.36 249.822 203.02 249.822 203.82V204.78H247.262V203.76C247.262 203.36 247.228 203.047 247.162 202.82C247.108 202.58 247.008 202.413 246.862 202.32C246.715 202.213 246.522 202.16 246.282 202.16C246.042 202.16 245.848 202.227 245.702 202.36C245.555 202.48 245.448 202.68 245.382 202.96C245.328 203.24 245.302 203.627 245.302 204.12V208.36C245.302 209.107 245.382 209.613 245.542 209.88C245.702 210.133 245.955 210.26 246.302 210.26C246.568 210.26 246.768 210.2 246.902 210.08C247.048 209.96 247.142 209.787 247.182 209.56C247.235 209.32 247.262 209.033 247.262 208.7V207.46H249.822V208.56C249.822 209.333 249.695 209.993 249.442 210.54C249.202 211.087 248.815 211.5 248.282 211.78C247.762 212.047 247.095 212.18 246.282 212.18ZM250.85 212L252.83 207.16C252.484 207 252.197 206.773 251.97 206.48C251.757 206.173 251.597 205.813 251.49 205.4C251.384 204.973 251.33 204.507 251.33 204C251.33 203.427 251.404 202.92 251.55 202.48C251.71 202.04 251.964 201.673 252.31 201.38C252.657 201.073 253.11 200.84 253.67 200.68C254.23 200.52 254.91 200.44 255.71 200.44H259.01V212H256.33V207.66C256.197 207.66 256.03 207.66 255.83 207.66C255.63 207.647 255.464 207.633 255.33 207.62L253.73 212H250.85ZM256.13 206.08C256.157 206.08 256.19 206.08 256.23 206.08C256.284 206.08 256.317 206.08 256.33 206.08V201.98C256.317 201.98 256.284 201.98 256.23 201.98C256.19 201.98 256.164 201.98 256.15 201.98C255.59 201.98 255.13 202.053 254.77 202.2C254.424 202.333 254.17 202.547 254.01 202.84C253.864 203.133 253.79 203.513 253.79 203.98C253.79 204.687 253.97 205.213 254.33 205.56C254.704 205.893 255.304 206.067 256.13 206.08ZM261.863 208.2L261.043 195.82H263.763L262.803 208.2H261.863ZM261.023 212V209.36H263.663V212H261.023Z" fill="#212121"/>
</svg>
