<svg width="58" height="97" viewBox="0 0 58 97" fill="none" xmlns="http://www.w3.org/2000/svg">
<rect y="44" width="44" height="12" rx="3" transform="rotate(-90 0 44)" fill="#212121"/>
<path d="M33 95.137C33 95.641 32.784 96.028 32.352 96.298C31.92 96.568 31.461 96.595 30.975 96.379L12.858 88.792C12.228 88.522 11.913 88.081 11.913 87.469C11.913 86.821 12.228 86.38 12.858 86.146L31.029 78.532C31.533 78.334 31.992 78.37 32.406 78.64C32.802 78.892 33 79.279 33 79.801C33 80.071 32.928 80.332 32.784 80.584C32.622 80.818 32.406 80.989 32.136 81.097L15.504 87.793L15.504 87.037L32.136 93.841C32.424 93.967 32.64 94.156 32.784 94.408C32.928 94.642 33 94.885 33 95.137ZM28.356 93.706L26.034 92.626L26.034 82.042L28.356 80.962L28.356 93.706ZM33.027 63.1116C33.027 63.5076 32.901 63.8406 32.649 64.1106C32.379 64.3626 32.046 64.4886 31.65 64.4886L25.008 64.4886C23.982 64.4886 23.145 64.6776 22.497 65.0556C21.849 65.4336 21.372 65.9466 21.066 66.5946C20.742 67.2246 20.58 67.9536 20.58 68.7816C20.58 69.5376 20.733 70.2216 21.039 70.8336C21.345 71.4456 21.759 71.9316 22.281 72.2916C22.785 72.6516 23.37 72.8316 24.036 72.8316L24.036 74.5326C22.902 74.5326 21.894 74.2626 21.012 73.7226C20.112 73.1646 19.401 72.4086 18.879 71.4546C18.357 70.5006 18.096 69.4296 18.096 68.2416C18.096 66.9996 18.366 65.8926 18.906 64.9206C19.428 63.9306 20.202 63.1566 21.228 62.5986C22.254 62.0226 23.514 61.7346 25.008 61.7346L31.65 61.7346C32.046 61.7346 32.379 61.8696 32.649 62.1396C32.901 62.3916 33.027 62.7156 33.027 63.1116ZM33.027 74.2086C33.027 74.6046 32.901 74.9376 32.649 75.2076C32.379 75.4596 32.046 75.5856 31.65 75.5856L19.608 75.5856C19.194 75.5856 18.861 75.4596 18.609 75.2076C18.357 74.9376 18.231 74.6046 18.231 74.2086C18.231 73.7946 18.357 73.4616 18.609 73.2096C18.861 72.9576 19.194 72.8316 19.608 72.8316L31.65 72.8316C32.046 72.8316 32.379 72.9576 32.649 73.2096C32.901 73.4616 33.027 73.7946 33.027 74.2086ZM33 55.5343C33 55.9303 32.874 56.2633 32.622 56.5333C32.352 56.7853 32.019 56.9113 31.623 56.9113L19.608 56.9113C19.194 56.9113 18.861 56.7853 18.609 56.5333C18.357 56.2633 18.231 55.9303 18.231 55.5343C18.231 55.1203 18.357 54.7873 18.609 54.5353C18.861 54.2833 19.194 54.1573 19.608 54.1573L31.623 54.1573C32.019 54.1573 32.352 54.2833 32.622 54.5353C32.874 54.7873 33 55.1203 33 55.5343ZM15.828 55.5343C15.828 56.0203 15.657 56.4433 15.315 56.8033C14.955 57.1453 14.532 57.3163 14.046 57.3163C13.56 57.3163 13.146 57.1453 12.804 56.8033C12.444 56.4433 12.264 56.0203 12.264 55.5343C12.264 55.0483 12.444 54.6343 12.804 54.2923C13.146 53.9323 13.56 53.7523 14.046 53.7523C14.532 53.7523 14.955 53.9323 15.315 54.2923C15.657 54.6343 15.828 55.0483 15.828 55.5343ZM33.027 29.6479C33.027 30.0439 32.901 30.3769 32.649 30.6469C32.379 30.8989 32.046 31.0249 31.65 31.0249L23.928 31.0249C22.794 31.0249 21.957 31.3039 21.417 31.8619C20.859 32.4199 20.58 33.1489 20.58 34.0489C20.58 34.9849 20.904 35.7589 21.552 36.3709C22.2 36.9649 23.028 37.2619 24.036 37.2619L24.036 39.5029C22.866 39.5029 21.84 39.2509 20.958 38.7469C20.058 38.2429 19.356 37.5409 18.852 36.6409C18.348 35.7229 18.096 34.6789 18.096 33.5089C18.096 32.4829 18.321 31.5739 18.771 30.7819C19.221 29.9899 19.887 29.3779 20.769 28.9459C21.633 28.4959 22.686 28.2709 23.928 28.2709L31.65 28.2709C32.046 28.2709 32.379 28.3969 32.649 28.6489C32.901 28.9009 33.027 29.2339 33.027 29.6479ZM33.027 47.6569C33.027 48.0529 32.901 48.3859 32.649 48.6559C32.379 48.9079 32.046 49.0339 31.65 49.0339L19.635 49.0339C19.221 49.0339 18.888 48.9079 18.636 48.6559C18.384 48.3859 18.258 48.0529 18.258 47.6569C18.258 47.2429 18.384 46.9099 18.636 46.6579C18.888 46.4059 19.221 46.2799 19.635 46.2799L31.65 46.2799C32.046 46.2799 32.379 46.4059 32.649 46.6579C32.901 46.9099 33.027 47.2429 33.027 47.6569ZM33.027 38.6389C33.027 39.0349 32.901 39.3679 32.649 39.6379C32.379 39.8899 32.046 40.0159 31.65 40.0159L23.928 40.0159C22.794 40.0159 21.957 40.2949 21.417 40.8529C20.859 41.4109 20.58 42.1399 20.58 43.0399C20.58 43.9759 20.904 44.7499 21.552 45.3619C22.2 45.9739 23.028 46.2799 24.036 46.2799L24.036 47.9809C22.866 47.9809 21.84 47.7469 20.958 47.2789C20.058 46.8109 19.356 46.1629 18.852 45.3349C18.348 44.5069 18.096 43.5619 18.096 42.4999C18.096 41.4739 18.321 40.5649 18.771 39.7729C19.221 38.9809 19.887 38.3689 20.769 37.9369C21.633 37.4869 22.686 37.2619 23.928 37.2619L31.65 37.2619C32.046 37.2619 32.379 37.3879 32.649 37.6399C32.901 37.8919 33.027 38.2249 33.027 38.6389ZM33.108 16.756C33.108 18.25 32.793 19.582 32.163 20.752C31.515 21.904 30.633 22.813 29.517 23.479C28.383 24.127 27.087 24.451 25.629 24.451C24.153 24.451 22.857 24.145 21.741 23.533C20.607 22.903 19.725 22.039 19.095 20.941C18.447 19.843 18.123 18.583 18.123 17.161C18.123 15.757 18.438 14.551 19.068 13.543C19.68 12.535 20.535 11.77 21.633 11.248C22.713 10.708 23.964 10.438 25.386 10.438C25.728 10.438 26.016 10.555 26.25 10.789C26.466 11.023 26.574 11.32 26.574 11.68L26.574 22.561L24.414 22.561L24.414 11.761L25.17 12.868C24.27 12.886 23.469 13.066 22.767 13.408C22.047 13.75 21.48 14.236 21.066 14.866C20.652 15.496 20.445 16.261 20.445 17.161C20.445 18.187 20.67 19.069 21.12 19.807C21.57 20.527 22.191 21.076 22.983 21.454C23.757 21.832 24.639 22.021 25.629 22.021C26.619 22.021 27.501 21.796 28.275 21.346C29.049 20.896 29.661 20.275 30.111 19.483C30.561 18.691 30.786 17.782 30.786 16.756C30.786 16.198 30.687 15.631 30.489 15.055C30.273 14.461 30.03 13.984 29.76 13.624C29.562 13.354 29.463 13.066 29.463 12.76C29.445 12.436 29.535 12.157 29.733 11.923C30.003 11.617 30.3 11.455 30.624 11.437C30.948 11.419 31.227 11.563 31.461 11.869C31.947 12.481 32.343 13.246 32.649 14.164C32.955 15.064 33.108 15.928 33.108 16.756Z" fill="#212121"/>
<path d="M9 31.936C9 32.0387 8.965 32.125 8.895 32.195C8.825 32.265 8.73867 32.3 8.636 32.3L3.897 32.3C3.78967 32.3 3.70333 32.265 3.638 32.195C3.568 32.125 3.533 32.0387 3.533 31.936L3.533 30.263C3.533 29.9457 3.596 29.668 3.722 29.43C3.84333 29.1873 4.01367 28.9983 4.233 28.863C4.45233 28.723 4.70433 28.653 4.989 28.653C5.21767 28.653 5.42533 28.716 5.612 28.842C5.794 28.9633 5.93867 29.1313 6.046 29.346C6.12067 29.038 6.26767 28.7907 6.487 28.604C6.70633 28.4173 6.99333 28.324 7.348 28.324C7.67 28.324 7.95467 28.401 8.202 28.555C8.44933 28.7043 8.64533 28.9143 8.79 29.185C8.93 29.4557 9 29.766 9 30.116L9 31.936ZM8.328 31.572L8.328 30.116C8.328 29.9013 8.29067 29.7123 8.216 29.549C8.14133 29.3857 8.03167 29.2573 7.887 29.164C7.74233 29.0707 7.56267 29.024 7.348 29.024C7.14733 29.024 6.98167 29.0707 6.851 29.164C6.72033 29.2573 6.62233 29.3857 6.557 29.549C6.487 29.7123 6.452 29.9013 6.452 30.116L6.452 31.572L8.328 31.572ZM5.78 31.572L5.78 30.263C5.78 29.997 5.71467 29.78 5.584 29.612C5.45333 29.4393 5.255 29.353 4.989 29.353C4.723 29.353 4.527 29.4393 4.401 29.612C4.27033 29.78 4.205 29.997 4.205 30.263L4.205 31.572L5.78 31.572ZM9 26.8774C9 26.9801 8.965 27.0664 8.895 27.1364C8.825 27.2064 8.73867 27.2414 8.636 27.2414L3.897 27.2414C3.78967 27.2414 3.70333 27.2064 3.638 27.1364C3.568 27.0664 3.533 26.9801 3.533 26.8774L3.533 23.7134C3.533 23.6061 3.56567 23.5197 3.631 23.4544C3.69167 23.3891 3.77333 23.3564 3.876 23.3564C3.974 23.3564 4.05333 23.3891 4.114 23.4544C4.17467 23.5197 4.205 23.6061 4.205 23.7134L4.205 26.5134L5.906 26.5134L5.906 24.5044C5.906 24.3971 5.93867 24.3107 6.004 24.2454C6.06467 24.1801 6.144 24.1474 6.242 24.1474C6.34 24.1474 6.42167 24.1801 6.487 24.2454C6.54767 24.3107 6.578 24.3971 6.578 24.5044L6.578 26.5134L8.328 26.5134L8.328 23.7134C8.328 23.6061 8.35833 23.5197 8.419 23.4544C8.47967 23.3891 8.559 23.3564 8.657 23.3564C8.75967 23.3564 8.84367 23.3891 8.909 23.4544C8.96967 23.5197 9 23.6061 9 23.7134L9 26.8774ZM9 20.723C9 20.8257 8.965 20.912 8.895 20.982C8.825 21.052 8.73867 21.087 8.636 21.087L3.533 21.087L3.533 20.359L8.636 20.359C8.73867 20.359 8.825 20.394 8.895 20.464C8.965 20.534 9 20.6204 9 20.723ZM4.205 22.599C4.205 22.697 4.17467 22.7787 4.114 22.844C4.04867 22.9047 3.967 22.935 3.869 22.935C3.771 22.935 3.69167 22.9047 3.631 22.844C3.56567 22.7787 3.533 22.697 3.533 22.599L3.533 18.854C3.533 18.756 3.56567 18.6767 3.631 18.616C3.69167 18.5507 3.771 18.518 3.869 18.518C3.967 18.518 4.04867 18.5507 4.114 18.616C4.17467 18.6767 4.205 18.756 4.205 18.854L4.205 22.599ZM9 18.4897C9 18.6203 8.944 18.7207 8.832 18.7907C8.72 18.8607 8.601 18.8677 8.475 18.8117L3.778 16.8447C3.61467 16.7747 3.533 16.6603 3.533 16.5017C3.533 16.3337 3.61467 16.2193 3.778 16.1587L8.489 14.1847C8.61967 14.1333 8.73867 14.1427 8.846 14.2127C8.94867 14.278 9 14.3783 9 14.5137C9 14.5837 8.98133 14.6513 8.944 14.7167C8.902 14.7773 8.846 14.8217 8.776 14.8497L4.464 16.5857L4.464 16.3897L8.776 18.1537C8.85067 18.1863 8.90667 18.2353 8.944 18.3007C8.98133 18.3613 9 18.4243 9 18.4897ZM7.796 18.1187L7.194 17.8387L7.194 15.0947L7.796 14.8147L7.796 18.1187Z" fill="white"/>
<path d="M53 70.656C53 70.9787 52.89 71.25 52.67 71.47C52.45 71.69 52.1787 71.8 51.856 71.8L36.962 71.8C36.6247 71.8 36.3533 71.69 36.148 71.47C35.928 71.25 35.818 70.9787 35.818 70.656L35.818 65.398C35.818 64.4007 36.016 63.528 36.412 62.78C36.7933 62.0173 37.3287 61.4233 38.018 60.998C38.7073 60.558 39.4993 60.338 40.394 60.338C41.1127 60.338 41.7653 60.536 42.352 60.932C42.924 61.3133 43.3787 61.8413 43.716 62.516C43.9507 61.548 44.4127 60.7707 45.102 60.184C45.7913 59.5973 46.6933 59.304 47.808 59.304C48.82 59.304 49.7147 59.546 50.492 60.03C51.2693 60.4993 51.8853 61.1593 52.34 62.01C52.78 62.8607 53 63.836 53 64.936L53 70.656ZM50.888 69.512L50.888 64.936C50.888 64.2613 50.7707 63.6673 50.536 63.154C50.3013 62.6407 49.9567 62.2373 49.502 61.944C49.0473 61.6507 48.4827 61.504 47.808 61.504C47.1773 61.504 46.6567 61.6507 46.246 61.944C45.8353 62.2373 45.5273 62.6407 45.322 63.154C45.102 63.6673 44.992 64.2613 44.992 64.936L44.992 69.512L50.888 69.512ZM42.88 69.512L42.88 65.398C42.88 64.562 42.6747 63.88 42.264 63.352C41.8533 62.8093 41.23 62.538 40.394 62.538C39.558 62.538 38.942 62.8093 38.546 63.352C38.1353 63.88 37.93 64.562 37.93 65.398L37.93 69.512L42.88 69.512ZM53.088 50.6656C53.088 51.8536 52.8313 52.9022 52.318 53.8116C51.79 54.7209 51.0713 55.4396 50.162 55.9676C49.238 56.4809 48.182 56.7376 46.994 56.7376C45.7913 56.7376 44.7353 56.4809 43.826 55.9676C42.902 55.4396 42.1833 54.7209 41.67 53.8116C41.142 52.9022 40.878 51.8536 40.878 50.6656C40.878 49.4922 41.142 48.4509 41.67 47.5416C42.1833 46.6322 42.902 45.9209 43.826 45.4076C44.7353 44.8796 45.7913 44.6156 46.994 44.6156C48.182 44.6156 49.238 44.8722 50.162 45.3856C51.0713 45.8989 51.79 46.6102 52.318 47.5196C52.8313 48.4289 53.088 49.4776 53.088 50.6656ZM51.108 50.6656C51.108 49.9029 50.932 49.2282 50.58 48.6416C50.228 48.0549 49.744 47.6002 49.128 47.2776C48.512 46.9402 47.8007 46.7716 46.994 46.7716C46.1873 46.7716 45.476 46.9402 44.86 47.2776C44.2293 47.6002 43.738 48.0549 43.386 48.6416C43.034 49.2282 42.858 49.9029 42.858 50.6656C42.858 51.4282 43.034 52.1029 43.386 52.6896C43.738 53.2762 44.2293 53.7382 44.86 54.0756C45.476 54.4129 46.1873 54.5816 46.994 54.5816C47.8007 54.5816 48.512 54.4129 49.128 54.0756C49.744 53.7382 50.228 53.2762 50.58 52.6896C50.932 52.1029 51.108 51.4282 51.108 50.6656ZM53 33.9236C53 34.0702 52.978 34.2096 52.934 34.3416C52.89 34.4736 52.7947 34.5982 52.648 34.7156L48.028 38.5656L47.236 39.3576L42.704 43.1856C42.4693 43.3762 42.22 43.4789 41.956 43.4936C41.6773 43.5082 41.4427 43.4349 41.252 43.2736C41.0613 43.1122 40.966 42.8702 40.966 42.5476C40.966 42.1956 41.0907 41.9169 41.34 41.7116L45.828 37.9496L46.356 37.3776L51.306 33.2416C51.57 33.0216 51.834 32.9189 52.098 32.9336C52.3473 32.9336 52.56 33.0289 52.736 33.2196C52.912 33.3956 53 33.6302 53 33.9236ZM53 42.3276C53 42.6209 52.912 42.8556 52.736 43.0316C52.5453 43.1929 52.318 43.2736 52.054 43.2736C51.79 43.2736 51.526 43.1709 51.262 42.9656L46.576 39.2256L48.248 38.0376L52.648 41.5356C52.8827 41.7556 53 42.0196 53 42.3276ZM47.346 36.8936L46.048 38.4116L41.34 34.8696C41.1933 34.7522 41.098 34.6276 41.054 34.4956C40.9953 34.3636 40.966 34.2169 40.966 34.0556C40.966 33.7329 41.0687 33.4909 41.274 33.3296C41.4647 33.1682 41.6993 33.0949 41.978 33.1096C42.2567 33.1096 42.528 33.2122 42.792 33.4176L47.346 36.8936Z" fill="#212121"/>
</svg>
